<?xml version="1.0" encoding="UTF-8"?> <!-- Generator: Adobe Illustrator 24.0.1, SVG Export Plug-In . SVG Version: 6.00 Build 0) --> <svg xmlns="http://www.w3.org/2000/svg" xmlns:xlink="http://www.w3.org/1999/xlink" version="1.1" id="Layer_1" x="0px" y="0px" viewBox="0 0 1778.9 402.2" style="enable-background:new 0 0 1778.9 402.2;" xml:space="preserve"> <style type="text/css"> .st0{display:none;} .st1{display:inline;} .st2{fill:#FFDAD2;} .st3{fill:#FF3900;} .st4{fill:#FAD537;stroke:#FAD537;stroke-miterlimit:10;} .st5{fill:#FBEF45;stroke:#FBEF45;stroke-miterlimit:10;} .st6{fill:#FAA529;stroke:#FAA529;stroke-miterlimit:10;} .st7{fill:#F8961D;stroke:#F8961D;stroke-miterlimit:10;} .st8{fill:#DBB929;stroke:#DBB929;stroke-width:1;stroke-miterlimit:9.9991;} .st9{fill:#FAD537;stroke:#FAD537;stroke-width:1;stroke-miterlimit:9.9991;} .st10{fill:#FEE36C;stroke:#FEE36C;stroke-miterlimit:10;} .st11{fill:#FAA529;stroke:#FAA529;stroke-width:1;stroke-miterlimit:9.9991;} .st12{fill:#EACA40;} .st13{enable-background:new ;} .st14{fill:#FFFFFF;} </style> <g id="Layer_2_1_" class="st0"> <rect y="0" class="st1" width="2052.4" height="401.2"></rect> </g> <g id="Layer_1_1_"> <g id="Layer_2_2_"> <g> <g> <g> <circle class="st2" cx="201" cy="202.2" r="199"></circle> </g> <g> <circle class="st3" cx="201" cy="202.2" r="157.6"></circle> </g> </g> <path class="st2" d="M272,218.8v-33.2c5.4-1.2,9.4-5.9,9.4-11.7c0-9.4-10.5-15.1-18.3-10.1l-23.7-23.7c5-7.9-0.6-18.3-10.1-18.3 c-11.6,0-16.4,15.1-6.8,21.7l-10.6,25.7l-18.1-18.1l18.8-7.8c1.3-0.5,1.9-2,1.4-3.3s-2-1.9-3.3-1.4l-20.7,8.6l-7.2-7.2 c5.1-7.8-0.5-18.4-10-18.4c-9.4,0-15.1,10.5-10.1,18.3l-23.7,24c-7.9-5-18.3,0.6-18.3,10.1c0,7.4,6.8,13.1,14.1,11.7l6.9,16.5 l-6.9,16.5c-7.3-1.3-14.1,4.3-14.1,11.7c0,9.4,10.5,15.1,18.3,10.1l23.7,23.7c-5,7.9,0.6,18.3,10.1,18.3c5.7,0,10.5-4,11.7-9.4 h33.2c1.2,5.4,5.9,9.4,11.7,9.4c6.6,0,11.9-5.4,11.9-11.9s-5.4-11.9-11.9-11.9c-5.7,0-10.5,4-11.7,9.4h-32.3l74.3-30.9 c6.7,9.7,21.7,4.7,21.7-6.8C281.4,224.7,277.4,220,272,218.8z M257.7,176.1l-7,2.9l-14.4-34.6l23.1,23.1 C257.9,169.9,257.2,173,257.7,176.1L257.7,176.1z M259.7,180.7c1.7,2.5,4.3,4.2,7.3,4.9v32.3l-14.2-34.3L259.7,180.7z M262.3,219.7l-28.4-28.4l14.2-5.8L262.3,219.7z M276.4,173.9c0,3.8-3.1,6.9-6.9,6.9s-6.9-3.1-6.9-6.9s3.1-6.9,6.9-6.9 S276.4,170.1,276.4,173.9z M229.3,126.9c3.8,0,6.9,3.1,6.9,6.9s-3.1,6.9-6.9,6.9c-3.8,0-6.9-3.1-6.9-6.9S225.5,126.9,229.3,126.9 z M227.2,145.5c1.4,0.3,2.8,0.3,4.3,0l14.7,35.4l-16.1,6.6l-14.3-14.3L227.2,145.5z M225,189.6l-19.4,8l8-19.4L225,189.6z M170.6,145.5c3,0.6,6.1-0.1,8.6-1.7l5.7,5.7l-19.3,8L170.6,145.5z M159.1,160.2l-15.9,6.6l22.5-22.5L159.1,160.2z M172.8,126.9 c3.8,0,6.9,3.1,6.9,6.9s-3.1,6.9-6.9,6.9c-3.8,0-6.9-3.1-6.9-6.9S169,126.9,172.8,126.9z M125.7,173.9c0-3.8,3.1-6.9,6.9-6.9 c3.8,0,6.9,3.1,6.9,6.9s-3.1,6.9-6.9,6.9C128.8,180.9,125.7,177.8,125.7,173.9z M139.4,183.7c3.8-2.7,5.8-7.3,4.9-12l12-5 l-12,28.9L139.4,183.7z M144.3,208.7l5,12.1l-6.9,2.9c-0.8-1.2-1.8-2.2-3-3L144.3,208.7z M144.3,228.3l7-2.9l14.4,34.6l-23.1-23 C144.2,234.5,144.9,231.4,144.3,228.3z M125.7,230.5c0-3.8,3.1-6.9,6.9-6.9c3.8,0,6.9,3.1,6.9,6.9c0,3.8-3.1,6.9-6.9,6.9 S125.7,234.3,125.7,230.5z M172.8,277.5c-3.8,0-6.9-3.1-6.9-6.9s3.1-6.9,6.9-6.9c3.8,0,6.9,3.1,6.9,6.9S176.6,277.5,172.8,277.5z M229.3,263.7c3.8,0,6.9,3.1,6.9,6.9s-3.1,6.9-6.9,6.9s-6.9-3.1-6.9-6.9S225.5,263.7,229.3,263.7z M182.6,263.8 c-2.7-3.8-7.3-5.8-12-4.9l-14.7-35.4l9.8-4c1.3-0.5,1.9-2,1.4-3.3s-2-1.9-3.3-1.4l-9.8,4l-6.9-16.7l15.8-38.1l25.9-10.8l21,21 l-10.7,25.9l-17.1,7c-1.3,0.5-1.9,2-1.4,3.3s2,1.9,3.3,1.4l12.5-5.1l-17.9,43.4c-0.7,1.7,0.5,3.5,2.3,3.5c1,0,1.9-0.6,2.3-1.6 l19.8-48l25.9-10.7l30.6,30.6c-1.6,2.5-2.3,5.6-1.7,8.6L182.6,263.8z M269.5,237.4c-3.8,0-6.9-3.1-6.9-6.9c0-3.8,3.1-6.9,6.9-6.9 s6.9,3.1,6.9,6.9C276.4,234.3,273.3,237.4,269.5,237.4z"></path> </g> </g> <g id="Layer_3" class="st0"> <g class="st1"> <g> <circle class="st4" cx="1737" cy="415.3" r="329.5"></circle> <path class="st5" d="M1707.8,107.1c190.4,0,344.7,154.3,344.7,344.7c0,33.1-4.7,65.1-13.4,95.4c17.7-40.4,27.5-85,27.5-131.9 c0-182-147.5-329.5-329.5-329.5c-72.5,0-139.6,23.5-194,63.2C1591.9,122.3,1648.1,107.1,1707.8,107.1z"></path> </g> <g> <circle class="st6" cx="1737" cy="415.3" r="261"></circle> <path class="st7" d="M1772.5,663.4c-149.1,0-270.1-120.9-270.1-270.1c0-68.4,25.4-130.8,67.3-178.4 c-57.3,47.9-93.8,119.9-93.8,200.4c0,144.2,116.9,261,261,261c37.4,0,72.9-7.9,105.1-22C1819.9,660.2,1796.5,663.4,1772.5,663.4 z"></path> </g> <g> <polygon class="st7" points="1841.2,446.4 1759,446.4 1837.7,360.7 1837.7,315.5 1785,315.5 1785,280.9 1765.6,280.9 1765.6,315.5 1736.5,315.5 1736.5,280.9 1717.1,280.9 1717.1,315.5 1664.4,315.5 1664.4,373.5 1739.6,373.5 1660.9,459.1 1660.9,504.4 1717.1,504.4 1717.1,539 1736.5,539 1736.5,504.4 1765.6,504.4 1765.6,539 1785,539 1785,504.4 1841.2,504.4 "></polygon> <polygon class="st5" points="1817.4,459.3 1735.2,459.3 1814,373.7 1814,328.4 1761.3,328.4 1761.3,293.8 1741.9,293.8 1741.9,328.4 1712.7,328.4 1712.7,293.8 1693.3,293.8 1693.3,328.4 1640.6,328.4 1640.6,386.4 1715.9,386.4 1637.2,472.1 1637.2,517.3 1693.3,517.3 1693.3,551.9 1712.7,551.9 1712.7,517.3 1741.9,517.3 1741.9,551.9 1761.3,551.9 1761.3,517.3 1817.4,517.3 "></polygon> <polygon class="st4" points="1823.9,452.8 1741.7,452.8 1820.4,367.2 1820.4,322 1767.8,322 1767.8,287.3 1748.3,287.3 1748.3,322 1719.2,322 1719.2,287.3 1699.8,287.3 1699.8,322 1647.1,322 1647.1,380 1722.4,380 1643.7,465.6 1643.7,510.8 1699.8,510.8 1699.8,545.5 1719.2,545.5 1719.2,510.8 1748.3,510.8 1748.3,545.5 1767.8,545.5 1767.8,510.8 1823.9,510.8 "></polygon> </g> </g> </g> <g id="Layer_4" class="st0"> <g class="st1"> <ellipse transform="matrix(0.7375 -0.6753 0.6753 0.7375 118.3171 1283.0956)" class="st8" cx="1709.8" cy="489.3" rx="301.7" ry="359.8"></ellipse> <g> <g> <ellipse transform="matrix(0.7375 -0.6753 0.6753 0.7375 90.3352 1269.0981)" class="st9" cx="1677.8" cy="518.3" rx="301.7" ry="359.8"></ellipse> <path class="st10" d="M1648.8,204.9c190.3,33.5,344.6,215,344.6,405.4c0,33.1-4.7,64.3-13.4,93c17.7-37.3,27.5-80.1,27.5-127 c0-182-147.5-355.5-329.5-387.6c-72.5-12.8-139.6-1.2-194,29C1532.9,199.6,1589.1,194.3,1648.8,204.9z"></path> </g> <g> <ellipse transform="matrix(0.7375 -0.6753 0.6753 0.7375 90.3349 1269.098)" class="st11" cx="1677.8" cy="518.3" rx="239" ry="285.1"></ellipse> <path class="st7" d="M1713.5,772.5c-149.2-26.3-270.1-168.5-270.1-317.6c0-68.4,25.4-126.3,67.3-166.5 c-57.3,37.8-93.8,103.3-93.8,183.8c0,144.2,116.9,281.6,261,307.1c37.4,6.6,72.9,5,105.1-3.5 C1760.9,777.7,1737.5,776.8,1713.5,772.5z"></path> </g> <g> <polygon class="st7" points="1782.2,567.6 1700,553.1 1778.7,481.4 1778.7,436.1 1726,426.8 1726,392.2 1706.6,388.8 1706.6,423.4 1677.5,418.3 1677.5,383.7 1658.1,380.2 1658.1,414.9 1605.4,405.6 1605.4,463.6 1680.6,476.9 1601.9,548.6 1601.9,593.8 1658.1,603.7 1658.1,638.4 1677.5,641.8 1677.5,607.2 1706.6,612.3 1706.6,646.9 1726,650.3 1726,615.7 1782.2,625.6 "></polygon> <polygon class="st5" points="1758.4,576.4 1676.2,561.9 1755,490.1 1755,444.9 1702.3,435.6 1702.3,401 1682.9,397.6 1682.9,432.2 1653.7,427 1653.7,392.4 1634.3,389 1634.3,423.6 1581.6,414.3 1581.6,472.3 1656.9,485.6 1578.2,557.4 1578.2,602.6 1634.3,612.5 1634.3,647.1 1653.7,650.5 1653.7,615.9 1682.9,621.1 1682.9,655.7 1702.3,659.1 1702.3,624.5 1758.4,634.4 "></polygon> <polygon class="st4" points="1764.9,571 1682.7,556.5 1761.4,484.8 1761.4,439.6 1708.8,430.3 1708.8,395.6 1689.3,392.2 1689.3,426.9 1660.2,421.7 1660.2,387.1 1640.8,383.7 1640.8,418.3 1588.1,409 1588.1,467 1663.4,480.3 1584.7,552 1584.7,597.3 1640.8,607.2 1640.8,641.8 1660.2,645.2 1660.2,610.6 1689.3,615.7 1689.3,650.4 1708.8,653.8 1708.8,619.1 1764.9,629 "></polygon> </g> </g> <g> <path class="st12" d="M1522.4,187.8c-11.7,5.6-22.9,12-33.4,19.2l-8.9,9.9c9.6-5.8,19.7-11,30.1-15.5L1522.4,187.8z"></path> <path class="st12" d="M1587.1,166.3c-7,1.4-13.8,3-20.6,4.9l-14.2,15.8c6.6-1.7,13.2-3.1,20-4.3L1587.1,166.3z"></path> <path class="st12" d="M1637.4,160.7c-5.7,0.1-11.4,0.4-17,0.9l-15.5,17.2c5.5-0.3,11.1-0.6,16.7-0.6L1637.4,160.7z"></path> <path class="st12" d="M1681.1,162.6c-5-0.6-10-1-15-1.3l-16.1,17.9c4.9,0.4,9.8,0.9,14.8,1.5L1681.1,162.6z"></path> <path class="st12" d="M1720.4,169.2c-4.5-1-9.1-2-13.6-2.8l-16.6,18.4c4.5,0.9,9,1.9,13.5,3L1720.4,169.2z"></path> <path class="st12" d="M1756.5,179.5c-4.2-1.4-8.3-2.8-12.5-4l-16.9,18.8c4.2,1.3,8.3,2.7,12.4,4.1L1756.5,179.5z"></path> <path class="st12" d="M1790,192.7c-3.9-1.7-7.7-3.4-11.6-5l-17.3,19.1c3.9,1.6,7.7,3.3,11.6,5.1L1790,192.7z"></path> <path class="st12" d="M1821.2,208.4c-3.6-2-7.2-4-10.9-5.9l-17.5,19.4c3.6,1.9,7.2,3.9,10.8,6L1821.2,208.4z"></path> <path class="st12" d="M1850.3,226.4c-3.4-2.3-6.7-4.5-10.1-6.7l-17.7,19.7c3.4,2.2,6.8,4.4,10.1,6.7L1850.3,226.4z"></path> <path class="st12" d="M1877.6,246.5c-3.1-2.5-6.3-5-9.5-7.4l-17.9,19.9c3.2,2.4,6.3,4.9,9.4,7.5L1877.6,246.5z"></path> <path class="st12" d="M1903,268.6c-2.9-2.7-5.9-5.5-8.8-8.1l-18.1,20.1c3,2.7,5.9,5.4,8.8,8.2L1903,268.6z"></path> <path class="st12" d="M1926.7,292.7c-2.7-3-5.4-5.9-8.2-8.8l-18.4,20.3c2.8,2.9,5.5,5.9,8.2,8.9L1926.7,292.7z"></path> <path class="st12" d="M1948.5,318.8c-2.5-3.2-5-6.4-7.6-9.5l-18.5,20.6c2.5,3.2,5.1,6.4,7.5,9.6L1948.5,318.8z"></path> <path class="st12" d="M1968.5,346.9c-2.3-3.5-4.5-6.9-6.9-10.3l-18.7,20.8c2.3,3.4,4.6,6.9,6.8,10.4L1968.5,346.9z"></path> <path class="st12" d="M1986.6,377.3c-2-3.7-4-7.4-6.2-11.1l-19,21.1c2.1,3.7,4.1,7.4,6.1,11.2L1986.6,377.3z"></path> <path class="st12" d="M2002.4,410.1c-1.7-4-3.5-8-5.3-12l-19.2,21.4c1.8,4,3.6,8,5.3,12.1L2002.4,410.1z"></path> <path class="st12" d="M2015.6,445.8c-1.4-4.4-2.9-8.7-4.4-13.1l-19.5,21.7c1.5,4.4,2.9,8.8,4.2,13.2L2015.6,445.8z"></path> <path class="st12" d="M2025.7,485c-1-4.8-2-9.6-3.2-14.4l-19.9,22.1c1.1,4.8,2.1,9.7,3,14.6L2025.7,485z"></path> <path class="st12" d="M2031.6,528.8c-0.4-5.4-0.9-10.8-1.6-16.2l-20.4,22.6c0.6,5.5,1,11,1.3,16.5L2031.6,528.8z"></path> <path class="st12" d="M2031.5,579.3c0.5-6.2,0.8-12.6,0.9-19l-21.1,23.5c-0.3,6.6-0.7,13-1.3,19.4L2031.5,579.3z"></path> <path class="st12" d="M2019.5,643c2.5-8.2,4.7-16.6,6.5-25.1l-22.7,25.1c-2.2,9.1-4.7,17.9-7.7,26.5L2019.5,643z"></path> <path class="st12" d="M1989.2,709.1l-56.6,62.9C1954.6,754.5,1973.8,733.3,1989.2,709.1z"></path> </g> </g> </g> </g> <g id="Layer_3_1_"> <g class="st13"> <path class="st14" d="M469.6,222.6c-1.1-1.1-1.7-2.5-1.7-4V70c0-1.7,0.5-3.1,1.6-4.2c1.1-1.1,2.4-1.7,4.1-1.7h60.2 c22.6,0,40.1,5.4,52.7,16.1c12.5,10.8,19.1,26.2,19.7,46.4c0.1,4.4,0.2,10.3,0.2,17.6s-0.1,13.1-0.2,17.4 c-1.5,41.8-25.3,62.7-71.2,62.7h-61.3C472.1,224.3,470.8,223.7,469.6,222.6z M533.8,189.9c9.6,0,16.7-2.3,21.3-6.9 c4.6-4.6,7-11.9,7.3-22c0.3-4.4,0.5-10.1,0.5-17.2c0-7-0.2-12.7-0.5-16.9c-0.3-9.8-2.9-17-7.9-21.6c-5-4.7-12.2-7-21.9-7H511v91.6 H533.8z"></path> <path class="st14" d="M647.6,210.8c-12.5-10.5-19.2-26-19.9-46.5c-0.2-4.3-0.2-10.8-0.2-19.7c0-8.8,0.1-15.5,0.2-19.9 c0.6-20.1,7.3-35.7,20-46.6c12.7-10.9,29.8-16.4,51.2-16.4c21.2,0,38.2,5.5,50.9,16.4c12.7,10.9,19.4,26.4,20,46.6 c0.3,8.9,0.5,15.5,0.5,19.9c0,4.6-0.2,11.1-0.5,19.7c-0.8,20.5-7.4,35.9-19.8,46.5c-12.4,10.5-29.5,15.8-51.2,15.8 C677.2,226.6,660.1,221.3,647.6,210.8z M717.9,185c4.7-4.8,7.2-12.2,7.6-22.1c0.3-8.8,0.5-15.2,0.5-19c0-3.8-0.2-10-0.5-18.5 c-0.3-9.9-2.8-17.3-7.6-22.1c-4.7-4.8-11.1-7.2-19-7.2c-8.1,0-14.5,2.4-19.2,7.2c-4.7,4.8-7.3,12.2-7.6,22.1 c-0.2,4.3-0.2,10.5-0.2,18.5c0,8.2,0.1,14.6,0.2,19c0.3,9.9,2.8,17.3,7.6,22.1c4.7,4.8,11.1,7.2,19.2,7.2 C706.8,192.2,713.2,189.8,717.9,185z"></path> <path class="st14" d="M819.5,220.5c-10.1-4-18.2-10.1-24.4-18.1s-9.3-17.6-9.5-28.7c0-1.4,0.5-2.6,1.4-3.5c0.9-1,2.1-1.5,3.4-1.5 h32.7c2.1,0,3.8,0.5,5,1.5c1.2,1,2.2,2.6,3,4.9c2.4,11.4,9.9,17.2,22.4,17.2c7.3,0,12.9-2.4,16.8-7.2c3.9-4.8,5.8-11.8,5.8-20.9 V99.5h-73.5c-1.5,0-2.9-0.6-4-1.7s-1.7-2.5-1.7-4v-24c0-1.7,0.6-3.1,1.7-4.1c1.1-1.1,2.5-1.6,4-1.6h111.9c1.7,0,3.1,0.6,4.2,1.7 c1.1,1.1,1.7,2.6,1.7,4.2v95.5c0,13-2.9,24.1-8.6,33.3c-5.7,9.2-13.7,16.2-24,20.8c-10.3,4.7-22.2,7-35.6,7 C840.6,226.6,829.6,224.5,819.5,220.5z"></path> <path class="st14" d="M965.6,210.8c-12.5-10.5-19.2-26-19.9-46.5c-0.2-4.3-0.2-10.8-0.2-19.7c0-8.8,0.1-15.5,0.2-19.9 c0.6-20.1,7.3-35.7,20-46.6c12.7-10.9,29.8-16.4,51.2-16.4c21.2,0,38.2,5.5,50.9,16.4c12.7,10.9,19.4,26.4,20,46.6 c0.3,8.9,0.5,15.5,0.5,19.9c0,4.6-0.2,11.1-0.5,19.7c-0.8,20.5-7.4,35.9-19.8,46.5c-12.4,10.5-29.5,15.8-51.2,15.8 C995.2,226.6,978.1,221.3,965.6,210.8z M1035.9,185c4.7-4.8,7.2-12.2,7.6-22.1c0.3-8.8,0.5-15.2,0.5-19c0-3.8-0.2-10-0.5-18.5 c-0.3-9.9-2.8-17.3-7.6-22.1c-4.7-4.8-11.1-7.2-19-7.2c-8.1,0-14.5,2.4-19.2,7.2c-4.7,4.8-7.3,12.2-7.6,22.1 c-0.2,4.3-0.2,10.5-0.2,18.5c0,8.2,0.1,14.6,0.2,19c0.3,9.9,2.8,17.3,7.6,22.1c4.7,4.8,11.1,7.2,19.2,7.2 C1024.8,192.2,1031.1,189.8,1035.9,185z"></path> </g> <g class="st13"> <path class="st14" d="M1129.6,210c-10.6-11.1-16.3-26.2-17.1-45.4c-0.2-4.1-0.2-10.8-0.2-20.1c0-9.5,0.1-16.3,0.2-20.6 c0.8-19.2,6.4-34.4,17.1-45.4c10.6-11.1,26.1-16.6,46.4-16.6c13.6,0,25.1,2.4,34.6,7.2c9.5,4.8,16.6,11.1,21.4,18.9 c4.8,7.8,7.4,16.1,7.9,25c0,1.4-0.5,2.5-1.5,3.3c-1,0.8-2.2,1.3-3.5,1.3h-11.4c-1.5,0-2.7-0.4-3.7-1.1c-0.9-0.8-1.6-2.1-2.1-3.9 c-2.6-11.7-7.3-20-14.1-24.7c-6.8-4.7-16-7.1-27.6-7.1c-26.6,0-40.4,14.8-41.4,44.4c-0.2,4.1-0.2,10.5-0.2,19 c0,8.5,0.1,15,0.2,19.5c1.1,29.5,14.9,44.2,41.4,44.2c11.4,0,20.6-2.4,27.5-7.1c6.9-4.7,11.6-12.9,14.2-24.5 c0.5-1.8,1.1-3.1,2.1-3.9c0.9-0.8,2.1-1.1,3.7-1.1h11.4c1.4,0,2.6,0.4,3.5,1.3c1,0.8,1.5,1.9,1.5,3.3c-0.5,8.9-3.1,17.2-7.9,25 c-4.8,7.8-11.9,14.1-21.4,18.9c-9.5,4.8-21,7.2-34.6,7.2C1155.7,226.6,1140.2,221,1129.6,210z"></path> <path class="st14" d="M1272.3,222.8c-0.9-1-1.4-2.2-1.4-3.8V69.5c0-1.7,0.5-3,1.4-4c0.9-1,2.1-1.5,3.7-1.5h11c1.7,0,3,0.5,4,1.5 c1,1,1.5,2.3,1.5,4v63.6h79.7V69.5c0-1.7,0.5-3,1.5-4c1-1,2.2-1.5,3.8-1.5h11c1.7,0,3,0.5,4,1.5c1,1,1.5,2.3,1.5,4V219 c0,1.5-0.5,2.8-1.6,3.8c-1.1,1-2.4,1.5-3.9,1.5h-11c-1.5,0-2.8-0.5-3.8-1.5c-1-1-1.5-2.2-1.5-3.8v-65.9h-79.7V219 c0,1.5-0.5,2.8-1.6,3.8c-1.1,1-2.4,1.5-3.9,1.5h-11C1274.5,224.3,1273.2,223.8,1272.3,222.8z"></path> <path class="st14" d="M1419.8,222.9c-0.9-0.9-1.4-2-1.4-3.2l0.5-2.5l56.8-148.1c1.2-3.4,3.7-5,7.3-5h14.7c3.7,0,6.1,1.7,7.3,5 l56.8,148.1l0.5,2.5c0,1.2-0.5,2.3-1.5,3.2c-1,0.9-2.1,1.4-3.3,1.4h-10.8c-1.5,0-2.8-0.4-3.8-1.3c-1-0.8-1.6-1.7-1.9-2.6l-12.8-33 h-75.8l-12.6,33c-1.2,2.6-3.1,3.9-5.7,3.9h-11C1421.7,224.3,1420.7,223.8,1419.8,222.9z M1458.9,168.4h62.7l-31.4-82.2 L1458.9,168.4z"></path> <path class="st14" d="M1588.2,222.8c-0.9-1-1.4-2.2-1.4-3.8V69.3c0-1.5,0.5-2.8,1.4-3.8c0.9-1,2.1-1.5,3.7-1.5h11.4 c1.7,0,3,0.5,3.9,1.4c0.9,0.9,1.4,2.2,1.4,3.9V219c0,1.5-0.5,2.8-1.5,3.8c-1,1-2.3,1.5-3.8,1.5h-11.4 C1590.4,224.3,1589.1,223.8,1588.2,222.8z"></path> <path class="st14" d="M1650.3,222.8c-0.9-1-1.4-2.2-1.4-3.8V69.5c0-1.7,0.5-3,1.4-4c0.9-1,2.1-1.5,3.7-1.5h10.1 c1.5,0,2.7,0.3,3.4,0.9c0.8,0.6,1.5,1.4,2.3,2.3l76.7,118.1V69.5c0-1.7,0.5-3,1.5-4c1-1,2.2-1.5,3.8-1.5h10.3c1.7,0,3,0.5,4,1.5 c1,1,1.5,2.3,1.5,4v149.3c0,1.5-0.5,2.8-1.5,3.9c-1,1.1-2.3,1.6-3.8,1.6h-10.3c-2.6,0-4.4-1.1-5.5-3.2l-76.7-117V219 c0,1.5-0.5,2.8-1.5,3.8c-1,1-2.3,1.5-3.8,1.5h-10.5C1652.4,224.3,1651.2,223.8,1650.3,222.8z"></path> </g> <g class="st13"> <path class="st14" d="M469.5,342c-0.4-0.4-0.6-1-0.6-1.7v-66.9c0-0.7,0.2-1.2,0.6-1.7c0.4-0.4,1-0.7,1.6-0.7h5.1 c0.8,0,1.3,0.2,1.7,0.6c0.4,0.4,0.6,1,0.6,1.7v66.9c0,0.7-0.2,1.2-0.7,1.7c-0.4,0.4-1,0.7-1.7,0.7h-5.1 C470.5,342.6,469.9,342.4,469.5,342z"></path> <path class="st14" d="M509,336.2c-4.7-4.9-7.3-11.7-7.6-20.3c-0.1-1.8-0.1-4.8-0.1-9c0-4.2,0-7.3,0.1-9.2 c0.3-8.6,2.9-15.4,7.6-20.3c4.7-4.9,11.7-7.4,20.7-7.4c6.1,0,11.2,1.1,15.5,3.2c4.2,2.1,7.4,5,9.6,8.4c2.1,3.5,3.3,7.2,3.5,11.2 c0,0.6-0.2,1.1-0.7,1.5c-0.4,0.4-1,0.6-1.6,0.6h-5.1c-0.7,0-1.2-0.2-1.6-0.5c-0.4-0.3-0.7-0.9-0.9-1.7c-1.2-5.3-3.3-8.9-6.3-11.1 c-3-2.1-7.1-3.2-12.3-3.2c-11.9,0-18,6.6-18.5,19.9c-0.1,1.8-0.1,4.7-0.1,8.5c0,3.8,0,6.7,0.1,8.7c0.5,13.2,6.7,19.8,18.5,19.8 c5.1,0,9.2-1.1,12.3-3.2c3.1-2.1,5.2-5.8,6.3-11c0.2-0.8,0.5-1.4,0.9-1.7c0.4-0.3,1-0.5,1.6-0.5h5.1c0.6,0,1.1,0.2,1.6,0.6 c0.4,0.4,0.7,0.9,0.7,1.5c-0.2,4-1.4,7.7-3.5,11.2c-2.1,3.5-5.3,6.3-9.6,8.4c-4.2,2.1-9.4,3.2-15.5,3.2 C520.6,343.7,513.7,341.2,509,336.2z"></path> <path class="st14" d="M584.7,336.6c-4.8-4.7-7.4-11.7-7.7-21.1c-0.1-2-0.1-4.9-0.1-8.7c0-3.8,0-6.6,0.1-8.6 c0.3-9.3,2.9-16.3,7.9-21.1c5-4.8,11.8-7.2,20.3-7.2c8.5,0,15.3,2.4,20.3,7.2c5,4.8,7.6,11.8,7.9,21.1c0.1,4,0.2,6.8,0.2,8.6 c0,1.7-0.1,4.6-0.2,8.7c-0.3,9.4-2.8,16.5-7.6,21.1s-11.7,7-20.5,7C596.4,343.7,589.5,341.3,584.7,336.6z M618.3,330.2 c3.3-3.3,5-8.4,5.3-15.2c0.1-4.1,0.2-6.8,0.2-8.2c0-1.5-0.1-4.2-0.2-8.2c-0.3-6.8-2-11.9-5.3-15.2c-3.3-3.3-7.6-5-13.1-5 c-5.5,0-9.8,1.7-13.2,5c-3.3,3.3-5.1,8.4-5.3,15.2c-0.1,2-0.1,4.7-0.1,8.2c0,3.4,0,6.1,0.1,8.2c0.2,6.8,1.9,11.9,5.2,15.2 c3.3,3.3,7.7,5,13.2,5C610.7,335.2,615.1,333.5,618.3,330.2z"></path> <path class="st14" d="M693.7,336.2c-4.7-4.9-7.3-11.7-7.6-20.3c-0.1-1.8-0.1-4.8-0.1-9c0-4.2,0-7.3,0.1-9.2 c0.3-8.6,2.9-15.4,7.6-20.3c4.7-4.9,11.7-7.4,20.7-7.4c6.1,0,11.2,1.1,15.5,3.2c4.2,2.1,7.4,5,9.6,8.4c2.1,3.5,3.3,7.2,3.5,11.2 c0,0.6-0.2,1.1-0.7,1.5c-0.4,0.4-1,0.6-1.6,0.6h-5.1c-0.7,0-1.2-0.2-1.6-0.5c-0.4-0.3-0.7-0.9-0.9-1.7c-1.2-5.3-3.3-8.9-6.3-11.1 c-3-2.1-7.1-3.2-12.3-3.2c-11.9,0-18,6.6-18.5,19.9c-0.1,1.8-0.1,4.7-0.1,8.5c0,3.8,0,6.7,0.1,8.7c0.5,13.2,6.7,19.8,18.5,19.8 c5.1,0,9.2-1.1,12.3-3.2c3.1-2.1,5.2-5.8,6.3-11c0.2-0.8,0.5-1.4,0.9-1.7c0.4-0.3,1-0.5,1.6-0.5h5.1c0.6,0,1.1,0.2,1.6,0.6 c0.4,0.4,0.7,0.9,0.7,1.5c-0.2,4-1.4,7.7-3.5,11.2c-2.1,3.5-5.3,6.3-9.6,8.4c-4.2,2.1-9.4,3.2-15.5,3.2 C705.4,343.7,698.5,341.2,693.7,336.2z"></path> <path class="st14" d="M767.3,337.3c-4.1-4.2-6.2-9.9-6.5-16.9l-0.1-4.4l0.1-4.4c0.3-7,2.5-12.7,6.6-16.9c4.1-4.2,9.9-6.3,17.2-6.3 c7.4,0,13.1,2.1,17.2,6.3c4.1,4.2,6.3,9.9,6.6,16.9c0.1,1.5,0.2,3,0.2,4.4c0,1.4-0.1,2.9-0.2,4.4c-0.3,7-2.4,12.7-6.5,16.9 c-4.1,4.2-9.8,6.3-17.3,6.3C777.2,343.7,771.4,341.5,767.3,337.3z M795.1,331.8c2.6-2.8,3.9-6.7,4.1-11.9c0.1-0.7,0.1-2,0.1-3.9 c0-1.9,0-3.2-0.1-3.9c-0.2-5.2-1.6-9.2-4.1-11.9s-6-4.1-10.4-4.1c-4.4,0-7.8,1.4-10.4,4.1c-2.6,2.8-3.9,6.7-4.1,11.9L770,316 l0.1,3.9c0.2,5.2,1.6,9.2,4.1,11.9c2.6,2.8,6,4.1,10.4,4.1C789,336,792.5,334.6,795.1,331.8z"></path> <path class="st14" d="M829.8,342c-0.4-0.4-0.7-1-0.7-1.7v-48.5c0-0.7,0.2-1.2,0.7-1.7c0.4-0.4,1-0.7,1.7-0.7h4.4 c0.8,0,1.3,0.2,1.7,0.6c0.4,0.4,0.6,1,0.6,1.7v4.5c2-2.5,4.4-4.5,7.1-5.8c2.7-1.4,6.1-2,10.1-2c6.6,0,11.6,2.1,15.3,6.3 c3.6,4.2,5.4,9.7,5.4,16.6v29c0,0.7-0.2,1.2-0.7,1.7c-0.4,0.4-1,0.7-1.7,0.7H869c-0.7,0-1.2-0.2-1.7-0.7c-0.4-0.4-0.7-1-0.7-1.7 v-28.4c0-4.9-1.2-8.7-3.6-11.5c-2.4-2.7-5.8-4.1-10.2-4.1c-4.4,0-7.8,1.4-10.4,4.1c-2.6,2.8-3.9,6.6-3.9,11.4v28.4 c0,0.7-0.2,1.2-0.7,1.7c-0.4,0.4-1,0.7-1.7,0.7h-4.7C830.8,342.6,830.2,342.4,829.8,342z"></path> <path class="st14" d="M904.7,341.3c-3.2-1.5-5.6-3.3-7.2-5.3c-1.6-2-2.4-3.6-2.4-4.9c0-0.7,0.2-1.2,0.7-1.6c0.5-0.4,1-0.6,1.5-0.6 h4.3c0.4,0,0.7,0.1,1,0.2c0.2,0.1,0.6,0.4,1,0.9c1.6,1.9,3.3,3.4,5.3,4.5c1.9,1.1,4.6,1.6,7.8,1.6c3.7,0,6.6-0.7,8.9-2 c2.2-1.4,3.3-3.3,3.3-5.9c0-1.7-0.5-3.1-1.4-4.1c-1-1-2.5-1.9-4.8-2.8c-2.2-0.8-5.5-1.7-9.9-2.7c-5.9-1.3-10.1-3.2-12.6-5.6 c-2.5-2.5-3.7-5.6-3.7-9.5c0-2.5,0.8-5,2.3-7.3c1.5-2.4,3.7-4.3,6.7-5.7c3-1.5,6.5-2.2,10.6-2.2c4.3,0,8,0.7,11,2.1 c3,1.4,5.3,3.1,6.9,5c1.5,1.9,2.3,3.5,2.3,4.8c0,0.6-0.2,1.1-0.7,1.5c-0.4,0.4-1,0.6-1.6,0.6h-3.9c-1,0-1.6-0.4-2-1.1 c-1.2-1.3-2.1-2.3-2.9-3c-0.8-0.7-1.9-1.3-3.4-1.8c-1.5-0.5-3.4-0.8-5.6-0.8c-3.3,0-5.9,0.7-7.7,2.1c-1.8,1.4-2.7,3.3-2.7,5.6 c0,1.4,0.4,2.6,1.1,3.6c0.8,1,2.2,1.9,4.3,2.8c2.1,0.9,5.3,1.7,9.4,2.6c6.5,1.4,11.1,3.3,13.8,5.8c2.7,2.5,4,5.8,4,9.7 c0,2.9-0.8,5.6-2.5,8c-1.7,2.4-4.2,4.3-7.5,5.6c-3.3,1.4-7.3,2-11.8,2C911.9,343.7,907.9,342.9,904.7,341.3z"></path> <path class="st14" d="M962.7,337.4c-3.5-4.2-5.3-9.8-5.3-16.7v-28.9c0-0.7,0.2-1.2,0.7-1.7c0.4-0.4,1-0.7,1.7-0.7h4.7 c0.7,0,1.2,0.2,1.7,0.7c0.4,0.4,0.7,1,0.7,1.7v28.4c0,10.4,4.5,15.6,13.5,15.6c4.4,0,7.8-1.4,10.4-4.1s3.8-6.6,3.8-11.4v-28.4 c0-0.7,0.2-1.2,0.7-1.7c0.4-0.4,1-0.7,1.7-0.7h4.7c0.7,0,1.2,0.2,1.7,0.7c0.4,0.4,0.7,1,0.7,1.7v48.5c0,0.7-0.2,1.2-0.7,1.7 c-0.4,0.4-1,0.7-1.7,0.7h-4.4c-0.7,0-1.2-0.2-1.7-0.7c-0.4-0.4-0.7-1-0.7-1.7v-4.6c-2,2.7-4.3,4.7-7,6c-2.7,1.3-6,2-10.1,2 C971.2,343.7,966.2,341.6,962.7,337.4z"></path> <path class="st14" d="M1027.5,342c-0.4-0.4-0.7-1-0.7-1.7v-68c0-0.8,0.2-1.3,0.7-1.7c0.4-0.4,1-0.6,1.7-0.6h4.5 c0.7,0,1.2,0.2,1.7,0.7c0.4,0.4,0.7,1,0.7,1.7v68c0,0.7-0.2,1.2-0.7,1.7c-0.4,0.4-1,0.7-1.7,0.7h-4.5 C1028.5,342.6,1027.9,342.4,1027.5,342z"></path> <path class="st14" d="M1063.5,324.7v-27.4h-8.1c-0.7,0-1.2-0.2-1.6-0.6s-0.6-1-0.6-1.6v-3.3c0-0.7,0.2-1.2,0.6-1.7 c0.4-0.4,1-0.7,1.6-0.7h8.1v-17.1c0-0.7,0.2-1.2,0.6-1.7c0.4-0.4,1-0.7,1.6-0.7h4.5c0.7,0,1.2,0.2,1.7,0.7c0.4,0.4,0.7,1,0.7,1.7 v17.1h12.7c0.7,0,1.2,0.2,1.7,0.7c0.4,0.4,0.7,1,0.7,1.7v3.3c0,0.7-0.2,1.2-0.7,1.6c-0.4,0.4-1,0.6-1.7,0.6h-12.7V324 c0,3.5,0.6,6.1,1.7,7.9c1.1,1.8,3.1,2.7,5.8,2.7h6.2c0.7,0,1.2,0.2,1.6,0.7c0.4,0.4,0.6,1,0.6,1.7v3.4c0,0.7-0.2,1.2-0.6,1.7 c-0.4,0.4-1,0.7-1.6,0.7h-7C1068.8,342.6,1063.5,336.7,1063.5,324.7z"></path> <path class="st14" d="M1105.9,278.7c-0.4-0.4-0.7-1-0.7-1.7v-5.3c0-0.7,0.2-1.3,0.7-1.7c0.4-0.5,1-0.7,1.7-0.7h6 c0.7,0,1.3,0.2,1.7,0.7c0.5,0.5,0.7,1.1,0.7,1.7v5.3c0,0.7-0.2,1.2-0.7,1.7c-0.5,0.4-1.1,0.7-1.7,0.7h-6 C1106.9,279.4,1106.3,279.2,1105.9,278.7z M1106.7,342c-0.4-0.4-0.7-1-0.7-1.7v-48.5c0-0.7,0.2-1.2,0.7-1.7c0.4-0.4,1-0.7,1.7-0.7 h4.5c0.7,0,1.2,0.2,1.7,0.7c0.4,0.4,0.7,1,0.7,1.7v48.5c0,0.7-0.2,1.2-0.7,1.7c-0.4,0.4-1,0.7-1.7,0.7h-4.5 C1107.7,342.6,1107.2,342.4,1106.7,342z"></path> <path class="st14" d="M1138.7,342c-0.4-0.4-0.7-1-0.7-1.7v-48.5c0-0.7,0.2-1.2,0.7-1.7c0.4-0.4,1-0.7,1.7-0.7h4.4 c0.8,0,1.3,0.2,1.7,0.6s0.6,1,0.6,1.7v4.5c2-2.5,4.4-4.5,7.1-5.8c2.7-1.4,6.1-2,10.1-2c6.5,0,11.6,2.1,15.2,6.3 c3.6,4.2,5.4,9.7,5.4,16.6v29c0,0.7-0.2,1.2-0.7,1.7c-0.4,0.4-1,0.7-1.7,0.7h-4.7c-0.7,0-1.2-0.2-1.7-0.7c-0.4-0.4-0.7-1-0.7-1.7 v-28.4c0-4.9-1.2-8.7-3.6-11.5c-2.4-2.7-5.8-4.1-10.2-4.1c-4.4,0-7.8,1.4-10.4,4.1c-2.6,2.8-3.9,6.6-3.9,11.4v28.4 c0,0.7-0.2,1.2-0.7,1.7c-0.4,0.4-1,0.7-1.7,0.7h-4.7C1139.8,342.6,1139.2,342.4,1138.7,342z"></path> <path class="st14" d="M1215.4,362.3c-3.4-1.9-5.8-4.1-7.2-6.5c-1.4-2.5-2.1-4.6-2.1-6.3c0-0.6,0.2-1.1,0.7-1.6 c0.5-0.4,1-0.7,1.6-0.7h4.5c0.6,0,1.1,0.2,1.5,0.5c0.4,0.3,0.8,0.9,1,1.7c1.9,5.5,6.2,8.2,13,8.2c5.1,0,8.9-1.1,11.4-3.3 c2.5-2.2,3.7-6,3.7-11.6v-7.1c-4,5.1-9.5,7.6-16.6,7.6c-7.2,0-12.6-2.3-16.2-7c-3.6-4.6-5.5-10.5-5.7-17.6l-0.1-2.9l0.1-2.8 c0.2-7,2.1-12.9,5.7-17.6s9-7,16.2-7c7.2,0,12.8,2.6,16.8,7.9v-4.4c0-0.7,0.2-1.3,0.7-1.7c0.4-0.5,1-0.7,1.7-0.7h4.4 c0.7,0,1.2,0.2,1.7,0.7c0.4,0.5,0.7,1.1,0.7,1.7v49.6c0,15.8-8,23.6-23.8,23.6C1223.3,365.1,1218.8,364.2,1215.4,362.3z M1239.6,330.5c2.4-3.1,3.7-6.8,3.9-11.2c0.1-0.6,0.1-1.8,0.1-3.6c0-1.7,0-2.9-0.1-3.5c-0.2-4.4-1.5-8.1-3.9-11.2 c-2.4-3.1-6-4.7-10.8-4.7c-4.9,0-8.5,1.6-10.7,4.7c-2.2,3.1-3.4,7.1-3.6,12l-0.1,2.7l0.1,2.8c0.2,4.9,1.4,8.9,3.6,12 c2.2,3.1,5.8,4.7,10.7,4.7C1233.5,335.2,1237.1,333.6,1239.6,330.5z"></path> </g> </g> </svg> 